<svg xmlns="http://www.w3.org/2000/svg" viewBox="0 0 360 260" role="img" aria-hidden="true">
  <defs>
    <linearGradient id="ai-a" x1="0%" x2="100%" y1="0%" y2="100%">
      <stop offset="0%" stop-color="#1ecbff" />
      <stop offset="100%" stop-color="#3a72ff" />
    </linearGradient>
  </defs>
  <circle cx="180" cy="128" r="72" fill="none" stroke="url(#ai-a)" stroke-dasharray="14 10" stroke-width="8" />
  <circle cx="180" cy="128" r="44" fill="rgba(30,203,255,0.08)" stroke="#9ad7ff" stroke-width="4" />
  <path d="M180 60v-28M180 224v-28M112 128H84M276 128h-28M132 80l-20-20M248 196l-20-20M248 80l20-20M132 196l-20 20" stroke="#4d9dff" stroke-linecap="round" stroke-width="6" />
  <circle cx="180" cy="128" r="16" fill="url(#ai-a)" />
  <circle cx="180" cy="32" r="10" fill="#9ad7ff" />
  <circle cx="180" cy="228" r="10" fill="#9ad7ff" />
  <circle cx="84" cy="128" r="10" fill="#9ad7ff" />
  <circle cx="276" cy="128" r="10" fill="#9ad7ff" />
  <circle cx="112" cy="60" r="10" fill="#9ad7ff" />
  <circle cx="248" cy="196" r="10" fill="#9ad7ff" />
  <circle cx="248" cy="60" r="10" fill="#9ad7ff" />
  <circle cx="112" cy="196" r="10" fill="#9ad7ff" />
</svg>
