<svg xmlns="http://www.w3.org/2000/svg" viewBox="0 0 420 320" role="img" aria-hidden="true">
  <rect width="420" height="320" fill="none" />
  <path d="M64 66 358 44l-10 102H70Z" fill="none" stroke="#18212f" stroke-width="4" stroke-linejoin="round" />
  <path d="M118 92h64M214 92h92M98 132h88M206 132h112M140 170h70" stroke="#4ea4ff" stroke-linecap="round" stroke-width="6" />
  <circle cx="98" cy="214" r="36" fill="#3b82f6" />
  <path d="M62 284c16-28 40-40 72-40s56 12 72 40" fill="none" stroke="#18212f" stroke-width="5" stroke-linecap="round" />
  <circle cx="302" cy="216" r="34" fill="#e9f2ff" stroke="#18212f" stroke-width="4" />
  <path d="M260 286c16-26 39-38 70-38 30 0 53 12 68 38" fill="none" stroke="#18212f" stroke-width="5" stroke-linecap="round" />
  <rect x="144" y="206" width="68" height="40" rx="7" fill="#ffffff" stroke="#18212f" stroke-width="4" />
  <rect x="214" y="198" width="56" height="48" rx="7" fill="#dceaff" stroke="#3b82f6" stroke-width="4" />
  <path d="M128 250h166M162 274h96" stroke="#18212f" stroke-width="5" stroke-linecap="round" />
</svg>
